<svg xmlns="http://www.w3.org/2000/svg" viewBox="0 0 20.98 46.44"><defs><style>.cls-1{fill:#00a896;}.cls-2{fill:#f9fae5;}.cls-3{fill:#02c39a;}</style></defs><title>logo 1.0</title><g id="Layer_2" data-name="Layer 2"><g id="Layer_2-2" data-name="Layer 2"><g id="Logo_1.0" data-name="Logo 1.0"><path class="cls-1" d="M14.43,19.14c-1.23-2.24-2.55-4.43-3.93-6.57,0,0,1.16-1.8,1.75-2.67.73-1.06,1.48-2.11,2.24-3.15s1.52-2,2.31-3a27.32,27.32,0,0,0-2.31,11,27,27,0,0,0,.35,4.34c0,.33.1.65.16,1,0,.06,0,.13,0,.19"/><path class="cls-1" d="M6.57,19.14c1.23-2.24,2.55-4.43,3.93-6.57,0,0-1.16-1.8-1.75-2.67C8,8.84,7.27,7.79,6.51,6.75S5,4.7,4.2,3.7a27.32,27.32,0,0,1,2.31,11,27,27,0,0,1-.35,4.34c0,.33-.1.65-.16,1,0,.06,0,.13,0,.19"/><path class="cls-2" d="M16.75,23.54c-.55-1.11-1.13-2.21-1.71-3.29h0L15,20.13h0c-.17-.33-.35-.65-.53-1h0c-.1-.19-.21-.38-.32-.56s-.22-.41-.34-.61l-.16-.29-.12-.21q-.64-1.12-1.32-2.22c-.55-.9-1.11-1.8-1.68-2.68-.57.88-1.13,1.78-1.67,2.68q-.68,1.09-1.32,2.22l-.12.21,0,.05c-.16.28-.32.56-.47.85l-.12.21a4,4,0,0,0-.2.35h0c-.18.32-.36.64-.53,1H6L6,20.25H6c-.58,1.08-1.16,2.18-1.71,3.29C2.29,27.46,0,31.46,0,35.94a10.6,10.6,0,0,0,10.49,10.5,10.5,10.5,0,0,0,7.39-3.11A10.45,10.45,0,0,0,21,35.94C21,31.46,18.7,27.46,16.75,23.54Z"/><path class="cls-3" d="M15,20.25,15,20.13h0c-.17-.33-.35-.65-.53-1h0c-.1-.19-.21-.38-.32-.56s-.22-.41-.34-.61l-.16-.29-.12-.21q-.64-1.12-1.32-2.22c-.55-.9-1.11-1.8-1.68-2.68-.57.88-1.13,1.78-1.67,2.68q-.68,1.09-1.32,2.22l-.12.21,0,.05c-.16.28-.32.56-.47.85l-.12.21a4,4,0,0,0-.2.35h0c-.18.32-.36.64-.53,1H6L6,20.25c0-.06,0-.13,0-.19C7.05,16.74,8,13.35,8.74,9.9Q9.84,5,10.49,0h0q.66,5,1.75,9.9C13,13.35,13.94,16.74,15,20.06,15,20.12,15,20.19,15,20.25Z"/></g></g></g></svg>