<svg xmlns="http://www.w3.org/2000/svg" xmlns:xlink="http://www.w3.org/1999/xlink" viewBox="0 0 20.9 46.44"><defs><style>.cls-1{fill:url(#New_Gradient_Swatch_2);}.cls-2{fill:url(#New_Gradient_Swatch_2-2);}.cls-3{fill:url(#New_Gradient_Swatch_1);}.cls-4{fill:#02c39a;}</style><linearGradient id="New_Gradient_Swatch_2" x1="13.5" y1="14.92" x2="17.83" y2="6.01" gradientUnits="userSpaceOnUse"><stop offset="0" stop-color="#00a896"/><stop offset="0.38" stop-color="#00ad97"/><stop offset="0.85" stop-color="#02bd99"/><stop offset="1" stop-color="#02c39a"/></linearGradient><linearGradient id="New_Gradient_Swatch_2-2" x1="-8019.81" y1="-8411.61" x2="-8015.48" y2="-8420.51" gradientTransform="matrix(-1, 0, 0, 1, -8012.3, 8426.53)" xlink:href="#New_Gradient_Swatch_2"/><linearGradient id="New_Gradient_Swatch_1" x1="10.45" y1="46.2" x2="10.45" y2="13.49" gradientUnits="userSpaceOnUse"><stop offset="0" stop-color="#f9fae5"/><stop offset="0.3" stop-color="#f8f9e0"/><stop offset="0.67" stop-color="#f4f6d0"/><stop offset="1" stop-color="#f0f3bd"/></linearGradient></defs><title>logo 1.1 gradient</title><g id="Layer_2" data-name="Layer 2"><g id="Layer_2-2" data-name="Layer 2"><g id="logo_1.1_gradient" data-name="logo 1.1 gradient"><path class="cls-1" d="M14.44,19.14c-1.23-2.24-2.55-4.43-3.93-6.57,0,0,1.16-1.8,1.75-2.67C13,8.84,13.74,7.79,14.5,6.75s1.52-2,2.31-3a27.32,27.32,0,0,0-2.31,11,27,27,0,0,0,.35,4.34c0,.33.1.65.16,1,0,.06,0,.13,0,.19"/><path class="cls-2" d="M6.57,19.14c1.23-2.24,2.55-4.43,3.93-6.57,0,0-1.16-1.8-1.75-2.67C8,8.84,7.27,7.79,6.51,6.75S5,4.7,4.2,3.7a27.32,27.32,0,0,1,2.31,11,27,27,0,0,1-.35,4.34c0,.33-.1.65-.16,1,0,.06,0,.13,0,.19"/><path class="cls-3" d="M20.9,37.19a10.62,10.62,0,0,1-10.41,9.25,10.62,10.62,0,0,1-9.06-5.26A10.47,10.47,0,0,1,0,35.94c0-4.48,2.29-8.48,4.24-12.4.55-1.11,1.13-2.21,1.71-3.29,0-.06,0-.06,0,0L6,20.13H6c.17-.33.35-.65.53-1h0a4,4,0,0,1,.2-.35l.12-.21c.15-.29.31-.57.47-.85l0-.05.12-.21q.65-1.12,1.32-2.22c.54-.9,1.1-1.8,1.67-2.68.57.88,1.13,1.78,1.68,2.68q.68,1.09,1.32,2.22l.12.21.16.29c.12.2.23.41.34.61s.22.37.32.56h0c.18.32.36.64.53,1h0a.6.6,0,0,1,.06.11,0,0,0,0,1,0,0h0c.58,1.08,1.16,2.18,1.71,3.29A63.12,63.12,0,0,1,20,30.48l-7.28,4.21a2.5,2.5,0,0,0-4.33,2.5Z"/><path class="cls-4" d="M15.05,20.25,15,20.13h0c-.17-.33-.35-.65-.53-1h0c-.1-.19-.21-.38-.32-.56s-.22-.41-.34-.61l-.16-.29-.12-.21q-.64-1.12-1.32-2.22c-.55-.9-1.11-1.8-1.68-2.68-.57.88-1.13,1.78-1.67,2.68q-.67,1.09-1.32,2.22l-.12.21,0,.05c-.16.28-.32.56-.47.85l-.12.21a4,4,0,0,0-.2.35h0c-.18.32-.36.64-.53,1H6L6,20.25c0-.06,0-.13,0-.19C7.06,16.74,8,13.35,8.75,9.9Q9.85,5,10.5,0h0q.66,5,1.75,9.9C13,13.35,14,16.74,15,20.06,15,20.12,15,20.19,15.05,20.25Z"/></g></g></g></svg>