<svg xmlns="http://www.w3.org/2000/svg" viewBox="0 0 23 36.82"><defs><style>.cls-1{fill:none;stroke:#f9fae5;stroke-miterlimit:10;stroke-width:2px;}</style></defs><title>logo 2.0</title><g id="Layer_2" data-name="Layer 2"><g id="logo_2.0" data-name="logo 2.0"><g id="logo_2.0-2" data-name="logo 2.0"><path id="tear" class="cls-1" d="M22,25.29a10.51,10.51,0,0,1-3.13,7.41,10.57,10.57,0,0,1-7.37,3.12A10.57,10.57,0,0,1,4.13,32.7,10.51,10.51,0,0,1,1,25.29c0-4.5,2.31-8.51,4.26-12.44C6.12,11.12,7,9.39,8,7.7c.59-1.08,1.2-2.13,1.85-3.17s1.11-1.81,1.68-2.69c.57.88,1.13,1.78,1.68,2.69S14.44,6.62,15,7.7c.94,1.69,1.85,3.42,2.71,5.15C19.69,16.78,22,20.79,22,25.29Z"/><circle id="bigger_ring" data-name="bigger ring" class="cls-1" cx="11.5" cy="25.27" r="6.5"/><circle id="smaller_ring" data-name="smaller ring" class="cls-1" cx="11.5" cy="25.27" r="2.5"/></g></g></g></svg>