<?xml version="1.0" encoding="UTF-8" standalone="no"?>
<svg
   xmlns:osb="http://www.openswatchbook.org/uri/2009/osb"
   xmlns:dc="http://purl.org/dc/elements/1.1/"
   xmlns:cc="http://creativecommons.org/ns#"
   xmlns:rdf="http://www.w3.org/1999/02/22-rdf-syntax-ns#"
   xmlns:svg="http://www.w3.org/2000/svg"
   xmlns="http://www.w3.org/2000/svg"
   xmlns:sodipodi="http://sodipodi.sourceforge.net/DTD/sodipodi-0.dtd"
   xmlns:inkscape="http://www.inkscape.org/namespaces/inkscape"
   inkscape:version="1.0 (4035a4fb49, 2020-05-01)"
   sodipodi:docname="GitHub-Mark.svg"
   version="1.1"
   id="svg2"
   xml:space="preserve"
   width="707.96002"
   height="666.65332"
   viewBox="0 0 707.96002 666.65332"><sodipodi:namedview
     inkscape:current-layer="g12"
     inkscape:window-maximized="1"
     inkscape:window-y="-8"
     inkscape:window-x="-8"
     inkscape:cy="209.18655"
     inkscape:cx="-176.91823"
     inkscape:zoom="0.63751276"
     showgrid="false"
     id="namedview98"
     inkscape:window-height="1017"
     inkscape:window-width="1920"
     inkscape:pageshadow="2"
     inkscape:pageopacity="0"
     guidetolerance="10"
     gridtolerance="10"
     objecttolerance="10"
     borderopacity="1"
     bordercolor="#666666"
     pagecolor="#fafafa" /><metadata
     id="metadata8"><rdf:RDF><cc:Work
         rdf:about=""><dc:format>image/svg+xml</dc:format><dc:type
           rdf:resource="http://purl.org/dc/dcmitype/StillImage" /><dc:title></dc:title></cc:Work></rdf:RDF></metadata><defs
     id="defs6"><linearGradient
       osb:paint="solid"
       id="linearGradient2865"><stop
         id="stop2863"
         offset="0"
         style="stop-color:#ffffff;stop-opacity:1;" /></linearGradient></defs><g
     id="g10"
     transform="matrix(1.3333333,0,0,-1.3333333,2.3528941,654.88886)"><g
       id="g12"
       transform="scale(0.1)"><path
         d="m 2700.7037,4792.0056 c -1344.3185,0 -2434.54053,-1090.0727 -2434.54053,-2434.8394 0,-1075.7238 697.56882,-1988.22811 1665.07733,-2310.18286 121.8167,-22.420219 166.2089,52.762336 166.2089,117.33262 0,57.84422 -2.0926,210.89985 -3.2883,414.02729 C 1416.92,431.2665 1274.0283,904.78219 1274.0283,904.78219 1163.2722,1186.0817 1003.64,1260.9652 1003.64,1260.9652 c -221.06372,150.9631 16.7405,147.9738 16.7405,147.9738 244.3807,-17.189 372.9234,-250.9574 372.9234,-250.9574 217.1776,-372.02671 569.9229,-264.55902 708.6296,-202.23075 22.1212,157.24075 85.0475,264.55895 154.5501,325.39255 -540.627,61.4316 -1109.055,270.3883 -1109.055,1203.3698 0,265.7547 94.9124,483.2312 250.6584,653.3261 -25.1108,61.5809 -108.6636,309.25 23.9149,644.3582 0,0 204.3232,65.4671 669.4687,-249.6122 194.1595,54.1075 402.5183,81.0117 609.5319,82.0581 206.8643,-1.0464 415.0737,-27.9506 609.532,-82.0581 464.8466,315.0793 668.8709,249.6122 668.8709,249.6122 132.8773,-335.1082 49.3245,-582.7773 24.3632,-644.3582 156.045,-170.0949 250.2101,-387.5714 250.2101,-653.3261 0,-935.373 -569.3249,-1141.1908 -1111.5961,-1201.4266 87.2895,-75.1825 165.1626,-223.7541 165.1626,-450.7966 0,-325.5421 -2.9894,-588.15794 -2.9894,-667.97404 0,-65.168127 43.9436,-140.948672 167.4046,-117.183122 966.7612,322.702082 1663.7322,1234.608462 1663.7322,2310.033362 0,1344.7667 -1090.2222,2434.8394 -2434.9889,2434.8394"
         style="fill:#ffffff;fill-opacity:1;fill-rule:evenodd;stroke:none;stroke-width:0;stroke-miterlimit:10;stroke-dasharray:none"
         id="path106" /></g></g></svg>
