<svg version="1" xmlns="http://www.w3.org/2000/svg" width="666.667" height="666.667" viewBox="0 0 500.000000 500.000000"><path d="M250 1.5c-.6 5.9-.8 7.3-1.3 11-.3 2.2-1 7.1-1.7 11-.6 3.8-1.3 8.3-1.6 10-.2 1.6-.9 5.5-1.4 8.5-.5 3-1.2 7.3-1.6 9.5-.3 2.2-.9 5.8-1.4 8-.5 2.2-1.1 5.6-1.5 7.5-.3 1.9-1 5.5-1.5 8s-1.2 5.6-1.4 7c-.2 1.4-.7 3.6-1 5-.6 2.4-1 4.9-2.2 11.4-1.4 7.3-1.6 7.3-8.1-2.1-11-15.7-13.6-19.3-27-37.3-7.3-9.8-13.7-18.1-14.2-18.5-.6-.3.3 2.4 1.9 6 1.7 3.7 3 7.3 3 7.9 0 .7.6 2.6 1.4 4.2 3.6 7.3 12.2 41.8 14.1 56.4.3 2.5.8 6.1 1 8 1.9 13.7 2.4 40.8 1.2 56.5-.8 9.6-1 11-2.2 19.5-.5 3-.8 5.8-.7 6.2.9 3.6-4.4 15.9-21.3 49.2-26.8 53.2-33.8 69.5-39.5 92.5-3.1 12.5-3.5 14.4-4.6 23.6-5.9 50.1 18.8 96.1 63.5 118.5 16 8 33 11.4 52.6 10.7 28.4-1.1 52.8-11.3 73.3-30.9 6.2-5.9 16.2-18 16.2-19.6 0-.6.3-1.2.8-1.4 1.5-.7 10.9-18.8 11.7-22.7.2-.9.8-2.9 1.4-4.5 1.1-2.8 2.8-9.5 3.7-14.6.3-1.4.7-3.1.9-3.8.2-.6.1-1.3-.3-1.3-.4-.1-30.7-.2-67.4-.3-36.6 0-66.9-.3-67.1-.6-1.6-1.7-3.4-10.1-3.1-14.7 1.6-23.4 30.5-33.4 46.6-16l3.7 3.9 20.3-11.7c11.2-6.5 25.5-14.9 31.8-18.5 6.3-3.7 13.1-7.7 15-8.7 1.9-1.1 5.2-3 7.2-4.2l3.6-2.2-2.8-6.7c-8-19.2-19.5-43.2-31.2-65.2-13.7-25.9-18.9-36.6-19.4-40.3-.2-2.2-.7-4.3-.9-4.8-.3-.4-.7-2.7-1-5.1-.9-8.8-1.7-14.3-2-14.8-.5-.8-1.8-24-1.8-32-.1-7.4 1.1-29.3 1.7-33 .2-1.4.7-5.2 1.1-8.5.4-3.2.9-6.8 1.1-8 .5-2.5 1.2-6.5 1.9-10.8.3-1.7.8-4 1.1-4.9.3-.9.7-2.5.9-3.7.6-3.4 4.6-17.2 7-24.6 2.4-7.4 4.8-13.9 8.5-23 .6-1.7.9-2.8.6-2.4-1.7 1.6-21 27.3-29.3 38.9-5.3 7.4-10.8 15.1-12.2 17-1.5 1.9-3.5 4.8-4.6 6.5l-1.9 3-1.3-5c-.7-2.8-1.5-6.5-1.8-8.3-.3-1.9-1.2-6.4-2-10-.8-3.7-2.2-10.8-3.1-15.7-.9-5-1.8-9.9-2-11-1.2-6-4.3-24.7-5-30-1.2-9.6-4.2-26-4.4-24z"/></svg>